<?xml version="1.0" standalone="no"?>
<!DOCTYPE svg PUBLIC "-//W3C//DTD SVG 20010904//EN"
 "http://www.w3.org/TR/2001/REC-SVG-20010904/DTD/svg10.dtd">
<svg version="1.0" xmlns="http://www.w3.org/2000/svg"
 width="250.000000pt" height="128.000000pt" viewBox="0 0 250.000000 128.000000"
 preserveAspectRatio="xMidYMid meet">

<g transform="translate(0.000000,128.000000) scale(0.100000,-0.100000)"
fill="#000000" stroke="none">
<path d="M645 720 c-3 -5 -14 -33 -24 -62 -11 -29 -22 -61 -26 -70 -5 -14 -2
-18 13 -18 15 0 25 16 46 73 14 39 26 75 26 80 0 10 -28 9 -35 -3z"/>
<path d="M397 684 c-27 -14 -47 -30 -45 -36 2 -6 27 -21 56 -34 47 -21 52 -21
52 -6 0 11 -13 23 -32 30 l-33 13 33 14 c17 8 32 21 32 30 0 20 -6 19 -63 -11z"/>
<path d="M820 695 c0 -9 11 -21 25 -27 14 -6 25 -15 25 -19 0 -5 -11 -11 -25
-15 -15 -4 -25 -13 -25 -25 0 -17 3 -16 52 5 29 13 53 27 55 32 2 6 -22 22
-52 37 -44 21 -55 24 -55 12z"/>
</g>
</svg>
